HIERARCHY
ROOT Hips
{
	OFFSET 0.00000 0.00000 0.00000
	CHANNELS 6 Xposition Yposition Zposition Zrotation Yrotation Xrotation 
	JOINT LHipJoint
	{
		OFFSET 0 0 0
		CHANNELS 3 Zrotation Yrotation Xrotation
		JOINT LeftHip
		{
			OFFSET 1.38691 -1.89057 0.78360
			CHANNELS 3 Zrotation Yrotation Xrotation
			JOINT LeftKnee
			{
				OFFSET 2.59731 -7.13606 0.00000
				CHANNELS 3 Zrotation Yrotation Xrotation
				JOINT LeftAnkle
				{
					OFFSET 2.70078 -7.42033 0.00000
					CHANNELS 3 Zrotation Yrotation Xrotation
					JOINT LeftToe
					{
						OFFSET 0.16751 -0.46024 2.68862
						CHANNELS 3 Zrotation Yrotation Xrotation
						End Site
						{
							OFFSET 0.00000 -0.00000 1.37057
						}
					}
				}
			}
		}
	}
	JOINT RHipJoint
	{
		OFFSET 0 0 0
		CHANNELS 3 Zrotation Yrotation Xrotation
		JOINT RightHip
		{
			OFFSET -1.38190 -1.89056 0.78359
			CHANNELS 3 Zrotation Yrotation Xrotation
			JOINT RightKnee
			{
				OFFSET -2.57785 -7.08258 0.00000
				CHANNELS 3 Zrotation Yrotation Xrotation
				JOINT RightAnkle
				{
					OFFSET -2.77908 -7.63547 0.00000
					CHANNELS 3 Zrotation Yrotation Xrotation
					JOINT RightToe
					{
						OFFSET -0.17921 -0.49237 2.62360
						CHANNELS 3 Zrotation Yrotation Xrotation
						End Site
						{
							OFFSET -0.00000 -0.00000 1.34085
						}
					}
				}
			}
		}
	}
	JOINT lowerback
	{
		OFFSET 0 0 0
		CHANNELS 3 Zrotation Yrotation Xrotation
		JOINT Chest
		{
			OFFSET -0.10749 2.04110 -0.22549
			CHANNELS 3 Zrotation Yrotation Xrotation
			JOINT Chest2
			{
				OFFSET 0.01213 2.05840 0.00691
				CHANNELS 3 Zrotation Yrotation Xrotation
				JOINT lowerneck
				{
					OFFSET 0 0 0
					CHANNELS 3 Zrotation Yrotation Xrotation
					JOINT Neck
					{
						OFFSET 0.06585 1.81215 0.35449
						CHANNELS 3 Zrotation Yrotation Xrotation
						JOINT Head
						{
							OFFSET -0.04315 1.87555 -0.27307
							CHANNELS 3 Zrotation Yrotation Xrotation
							End Site
							{
								OFFSET -0.01775 1.89740 -0.13294
							}
						}
					}
				}
				JOINT LeftCollar
				{
					OFFSET 0 0 0
					CHANNELS 3 Zrotation Yrotation Xrotation
					JOINT LeftShoulder
					{
						OFFSET 2.98012 1.63606 0.28888
CHANNELS 3 Zrotation Xrotation Yrotation
						JOINT LeftElbow
						{
OFFSET 0 -5.598640 -0.000000
CHANNELS 3 Zrotation Xrotation Yrotation
							JOINT LeftWrist
							{
OFFSET 0 -3.595420 -0.000000
CHANNELS 3 Zrotation Xrotation Yrotation
								JOINT lhand
								{
									OFFSET 0 0 0
CHANNELS 3 Zrotation Xrotation Yrotation
									JOINT LFingers
									{
OFFSET 0 -0.572010 -0.000000
CHANNELS 3 Zrotation Xrotation Yrotation
										End Site
										{
OFFSET 0 -0.461170 -0.000000
										}
									}
								}
								JOINT LThumb
								{
OFFSET 0 0.000000 0.000000
CHANNELS 3 Zrotation Xrotation Yrotation
									End Site
									{
OFFSET 0 -0.468210 0.468210
									}
								}
							}
						}
					}
				}
				JOINT RightCollar
				{
					OFFSET 0 0 0
					CHANNELS 3 Zrotation Yrotation Xrotation
					JOINT RightShoulder
					{
						OFFSET -3.08694 1.53706 0.36335
CHANNELS 3 Zrotation Xrotation Yrotation
						JOINT RightElbow
						{
OFFSET 0 -5.809400 -0.000000
CHANNELS 3 Zrotation Xrotation Yrotation
							JOINT RightWrist
							{
OFFSET 0 -3.669530 -0.000000
CHANNELS 3 Zrotation Xrotation Yrotation
								JOINT rhand
								{
									OFFSET 0 0 0
CHANNELS 3 Zrotation Xrotation Yrotation
									JOINT RFingers
									{
OFFSET 0 -0.578430 -0.000000
CHANNELS 3 Zrotation Xrotation Yrotation
										End Site
										{
OFFSET 0 -0.466350 -0.000000
										}
									}
								}
								JOINT RThumb
								{
OFFSET 0 0.000000 0.000000
CHANNELS 3 Zrotation Xrotation Yrotation
									End Site
									{
OFFSET 0 -0.473470 0.473470
									}
								}
							}
						}
					}
				}
			}
		}
	}
}
MOTION
Frames: 7
Frame Time: 0.008333333333333333
-8.864522 19.548882 11.052277 3.724314 108.911920 9.154131 0.000000 0.000000 0.000000 -13.490247 -20.650625 -8.458053 5.797990 14.229590 44.165190 4.234766 -8.553301 -37.568035 2.189416 -9.249889 -26.580124 0.000000 0.000000 0.000000 16.754345 8.555735 -7.666591 -4.477525 -12.769505 38.512533 -0.241338 21.410857 -16.884673 -0.159472 -2.572973 7.091976 -6.321485 -1.697391 7.929142 -1.055597 -2.932474 -1.440004 2.808588 -1.238894 -5.706283 -3.391167 -7.348178 -9.408656 -0.397237 -6.953373 45.941964 -0.496098 -2.405459 19.431288 0.000000 0.000000 0.000000 13.724144 7.107588 -32.561340 64.406269 -57.374117 38.030596 20.703517 -19.690285 -19.277445 0.000000 0.000000 0.000000 -7.125000 0.000000 0.000000 -7.572494 50.326293 1.006401 0.000000 0.000000 0.000000 -18.795582 15.960708 5.836327 -26.230312 -37.434216 -9.027706 -20.049889 -5.526358 23.430297 0.000000 0.000000 0.000000 7.125000 0.000000 0.000000 9.693806 54.481292 -2.282947
-8.826665 19.542132 11.191003 3.719692 109.020022 9.076855 0.000000 0.000000 0.000000 -13.524676 -20.692214 -8.448949 5.830839 14.262324 44.298729 4.225627 -8.526319 -37.527287 2.192492 -9.255955 -26.599251 0.000000 0.000000 0.000000 16.729851 8.514728 -7.780292 -4.547948 -12.855529 38.830562 -0.232382 21.384529 -16.803042 -0.159930 -2.576609 7.102039 -6.323112 -1.679495 7.954156 -1.052058 -2.909544 -1.419448 2.811101 -1.228094 -5.700601 -3.433053 -7.384975 -9.406396 -0.385531 -7.009268 45.902117 -0.492864 -2.434835 19.408761 0.000000 0.000000 0.000000 13.301510 7.440194 -32.607031 64.407823 -57.374458 38.031904 20.170660 -19.666459 -19.739788 0.000000 0.000000 0.000000 -7.125000 0.000000 0.000000 -8.233818 50.718362 1.171378 0.000000 0.000000 0.000000 -18.481376 16.004946 5.794140 -26.007884 -37.216058 -8.892601 -19.176728 -5.488979 23.847895 0.000000 0.000000 0.000000 7.125000 0.000000 0.000000 10.763431 54.736240 -2.600997
-8.788609 19.535353 11.329671 3.706220 109.118703 8.989758 0.000000 0.000000 0.000000 -13.561961 -20.726323 -8.435649 5.862631 14.293773 44.427615 4.216145 -8.494999 -37.485111 2.196053 -9.262991 -26.621519 0.000000 0.000000 0.000000 16.700418 8.471781 -7.895621 -4.619513 -12.941381 39.150504 -0.221570 21.358915 -16.708136 -0.160616 -2.582015 7.117099 -6.330019 -1.659459 7.979427 -1.052831 -2.884273 -1.396579 2.811702 -1.216124 -5.692836 -3.473255 -7.421659 -9.403993 -0.370086 -7.067447 45.860928 -0.488574 -2.464525 19.385636 0.000000 0.000000 0.000000 12.904683 7.762324 -32.651352 64.370238 -57.366263 38.000241 19.640999 -19.650198 -20.195481 0.000000 0.000000 0.000000 -7.125000 0.000000 0.000000 -8.904163 51.098070 1.355397 0.000000 0.000000 0.000000 -18.167227 16.057976 5.775133 -25.810007 -37.019597 -8.773369 -18.345447 -5.476666 24.239059 0.000000 0.000000 0.000000 7.125000 0.000000 0.000000 11.792718 54.965867 -2.924929
-8.750551 19.528573 11.468340 3.692683 109.217316 8.902605 0.000000 0.000000 0.000000 -13.599254 -20.760373 -8.422349 5.894419 14.325216 44.556478 4.206660 -8.463690 -37.442922 2.199612 -9.270024 -26.643775 0.000000 0.000000 0.000000 16.670954 8.428849 -8.010958 -4.691082 -13.027229 39.470442 -0.210750 21.333306 -16.613171 -0.161303 -2.587425 7.132170 -6.336965 -1.639404 8.004689 -1.053631 -2.858981 -1.373703 2.812291 -1.204142 -5.685058 -3.513467 -7.458343 -9.401587 -0.354599 -7.125643 45.819736 -0.484264 -2.494219 19.362512 0.000000 0.000000 0.000000 12.508018 8.084389 -32.695671 64.332443 -57.358022 37.968400 19.111358 -19.634026 -20.651134 0.000000 0.000000 0.000000 -7.125000 0.000000 0.000000 -9.574558 51.477707 1.539524 0.000000 0.000000 0.000000 -17.853074 16.111056 5.756259 -25.612263 -36.823259 -8.654220 -17.514504 -5.464470 24.630052 0.000000 0.000000 0.000000 7.125000 0.000000 0.000000 12.821641 55.195358 -3.248830
-8.712323 19.521752 11.607180 3.662693 109.298406 8.801049 0.000000 0.000000 0.000000 -13.638769 -20.779079 -8.409134 5.924881 14.355078 44.679358 4.196492 -8.435502 -37.397229 2.202744 -9.276159 -26.663082 0.000000 0.000000 0.000000 16.633369 8.390106 -8.128775 -4.763548 -13.111838 39.789611 -0.197878 21.309021 -16.502819 -0.162118 -2.593947 7.150276 -6.353741 -1.614648 8.027514 -1.061611 -2.828433 -1.348775 2.810060 -1.189340 -5.674203 -3.556458 -7.495026 -9.398197 -0.328642 -7.188069 45.777560 -0.475126 -2.524853 19.339815 0.000000 0.000000 0.000000 12.152809 8.389957 -32.739649 64.240799 -57.337942 37.891257 18.586503 -19.640676 -21.096787 0.000000 0.000000 0.000000 -7.125000 0.000000 0.000000 -10.257689 51.839352 1.751173 0.000000 0.000000 0.000000 -17.538067 16.176786 5.771490 -25.448667 -36.658418 -8.556612 -16.770277 -5.482447 24.977625 0.000000 0.000000 0.000000 7.125000 0.000000 0.000000 13.757310 55.390275 -3.564910
-8.674095 19.514930 11.746020 3.632702 109.379496 8.699493 0.000000 0.000000 0.000000 -13.678284 -20.797786 -8.395919 5.955343 14.384940 44.802237 4.186324 -8.407313 -37.351535 2.205876 -9.282295 -26.682389 0.000000 0.000000 0.000000 16.595784 8.351363 -8.246592 -4.836015 -13.196446 40.108780 -0.185007 21.284737 -16.392468 -0.162934 -2.600468 7.168382 -6.370517 -1.589891 8.050340 -1.069592 -2.797885 -1.323848 2.807829 -1.174538 -5.663348 -3.599449 -7.531710 -9.394808 -0.302684 -7.250496 45.735385 -0.465987 -2.555487 19.317118 0.000000 0.000000 0.000000 11.797599 8.695526 -32.783626 64.149154 -57.317863 37.814114 18.061648 -19.647326 -21.542439 0.000000 0.000000 0.000000 -7.125000 0.000000 0.000000 -10.940820 52.200997 1.962823 0.000000 0.000000 0.000000 -17.223060 16.242516 5.786722 -25.285071 -36.493578 -8.459003 -16.026049 -5.500424 25.325197 0.000000 0.000000 0.000000 7.125000 0.000000 0.000000 14.692978 55.585192 -3.880990
-8.635664 19.508050 11.884889 3.590957 109.451633 8.587425 0.000000 0.000000 0.000000 -13.718926 -20.807366 -8.382907 5.985055 14.413820 44.921651 4.175693 -8.382793 -37.303242 2.208488 -9.287419 -26.698520 0.000000 0.000000 0.000000 16.553406 8.314555 -8.364004 -4.908567 -13.279610 40.425177 -0.170749 21.263746 -16.273077 -0.164038 -2.609272 7.192842 -6.392289 -1.562421 8.071605 -1.083377 -2.764131 -1.297447 2.801844 -1.158176 -5.650385 -3.642006 -7.569405 -9.390408 -0.270084 -7.317544 45.693701 -0.454567 -2.587074 19.295230 0.000000 0.000000 0.000000 11.470088 8.988559 -32.827979 64.020801 -57.289408 37.706097 17.542338 -19.666916 -21.976395 0.000000 0.000000 0.000000 -7.125000 0.000000 0.000000 -11.627676 52.546179 2.190097 0.000000 0.000000 0.000000 -16.903836 16.314571 5.819426 -25.141345 -36.347713 -8.373698 -15.353044 -5.529203 25.642357 0.000000 0.000000 0.000000 7.125000 0.000000 0.000000 15.548414 55.760180 -4.182225
